<?xml version="1.0" encoding="utf-8"?>
<!-- Generator: Adobe Illustrator 19.2.1, SVG Export Plug-In . SVG Version: 6.00 Build 0)  -->
<svg version="1.1" id="Layer_1" xmlns="http://www.w3.org/2000/svg" xmlns:xlink="http://www.w3.org/1999/xlink" x="0px" y="0px"
	 viewBox="0 0 108.5 70.6" style="enable-background:new 0 0 108.5 70.6;" xml:space="preserve">
<style type="text/css">
	.st0{fill:#1978B6;}
	.st1{fill:#35A9E0;}
	.st2{fill:#225FAD;}
	.st3{fill:#2EBAA0;}
	.st4{fill:#28874E;}
	.st5{fill:#2B9A97;}
	.st6{fill:#33A55E;}
	.st7{fill:#EFEB63;}
	.st8{fill:#82C564;}
	.st9{fill:#E8262E;}
	.st10{fill:#F1683C;}
	.st11{fill:#FCBD2A;}
	.st12{fill:#F89D5F;}
	.st13{fill:#EE2E7E;}
	.st14{fill:#762D8A;}
	.st15{fill:#562B7B;}
	.st16{fill:#DA5F75;}
	.st17{fill:#F0597C;}
	.st18{fill:#EF4137;}
	.st19{fill:#F0522D;}
	.st20{fill:#EF3830;}
	.st21{fill:#E5499A;}
	.st22{fill:#B53B88;}
	.st23{fill:#6D2A84;}
	.st24{fill:#D62228;}
	.st25{fill:#21ACDB;}
	.st26{fill:#2699BC;}
	.st27{fill:#1E4583;}
	.st28{fill:#2CAA9A;}
	.st29{fill:#29B784;}
	.st30{fill:#2EB56D;}
	.st31{fill:#E7D555;}
	.st32{fill:#68BF64;}
	.st33{fill:#FAA82D;}
	.st34{fill:#F6913F;}
	.st35{fill:#FFFFFF;}
</style>
<g>
	<path class="st0" d="M29.4,0.5c-0.4,0.1-2.1,0.5-2.5,0.6c-3.5,0.9-6.7,2.3-9.7,4.1l22.6,30L29.4,0.5z"/>
	<path class="st1" d="M17.2,5.2c-3.8,2.3-7.2,5.4-9.9,9c-0.4,0.5-0.8,1-1.1,1.6l33.6,19.5L17.2,5.2z"/>
	<path class="st2" d="M39.7,35.2L6.1,15.7C4,18.9,2.3,22.4,1.3,26.2c0,0,0,0,0,0c0,0,0,0,0,0c-0.7,2.5-1.1,6.2-1.2,8.9c0,0,0,0,0,0
		L39.7,35.2z"/>
	<path class="st3" d="M39.5,0.1C38.7,0,33.7-0.2,29.4,0.5l10.4,34.7l9.6-33C45.2,1.1,42.3,0.4,39.5,0.1"/>
	<polygon class="st4" points="39.7,35.2 73.2,12.8 66.6,9.4 62.3,7.3 	"/>
	<path class="st5" d="M62.3,7.3c-2.3-1.2-3.9-1.8-5.5-2.4c-3.3-1.3-4.4-1.6-7.5-2.7l-9.6,33L62.3,7.3z"/>
	<path class="st6" d="M91.8,23.8c-7-4.5-13.1-8.1-18.6-11.1c-1.1-0.6-2.2-1.1-3.3-1.7L39.7,35.2L91.8,23.8z"/>
	<path class="st7" d="M108.5,35.2c-5-3.6-9.8-6.8-14.2-9.7c-0.8-0.6-1.7-1.1-2.5-1.6l-52,11.4L108.5,35.2z"/>
	<polygon class="st8" points="91.8,23.8 90.8,23.2 89,22 86.9,20.7 84.4,19.2 81.3,17.4 78.5,15.7 39.7,35.2 	"/>
	<polygon class="st9" points="39.7,35.2 73.1,57.7 66.6,61 62.4,63.1 	"/>
	<path class="st10" d="M91.8,46.6c-4.8,3.1-9.2,5.8-13.3,8.1c-1.8,1-3.6,2-5.3,2.9c-1.1,0.6-2.2,1.1-3.2,1.7L39.7,35.2L91.8,46.6z"
		/>
	<path class="st11" d="M108.5,35.2c-5,3.6-9.8,6.9-14.2,9.8c-0.8,0.6-1.7,1.1-2.5,1.6l-52-11.4L108.5,35.2z"/>
	<polygon class="st12" points="91.8,46.6 88.1,49 84.4,51.2 81.2,53.1 78.5,54.7 39.7,35.2 	"/>
	<path class="st13" d="M29.4,70c-0.4-0.1-2.1-0.4-2.5-0.6c-3.5-0.9-6.7-2.3-9.7-4.1l22.6-30.1L29.4,70z"/>
	<path class="st14" d="M17.2,65.3c-3.8-2.3-7.2-5.4-9.9-9c-0.4-0.5-0.8-1-1.1-1.6l33.6-19.6L17.2,65.3z"/>
	<path class="st15" d="M39.7,35.2L6.1,54.8C4,51.6,2.3,48.1,1.3,44.3c0,0,0,0,0,0c0,0,0,0,0,0c-0.7-2.5-1.1-6.3-1.3-9c0,0,0,0,0,0
		H39.7z"/>
	<path class="st16" d="M39.5,70.5c-0.8,0.1-2,0.2-2,0.2c-0.4,0-1.8,0-1.8,0c-2.2,0-4.3-0.3-6.4-0.6l10.4-34.8l8.5,33.4
		c0,0-0.5,0.2-0.6,0.2C43.8,69.9,41.4,70.3,39.5,70.5"/>
	<line class="st17" x1="48.3" y1="68.5" x2="39.7" y2="35.2"/>
	<path class="st18" d="M62.4,63.1c-2.3,1.2-4,1.8-5.6,2.4c-3.3,1.3-5.4,2-8.5,3.1l-8.5-33.4L62.4,63.1z"/>
	<path class="st19" d="M39.7,35.2l30.2,24.1c0-0.6-1.6-8-1.9-9.9L39.7,35.2z"/>
	<path class="st20" d="M39.7,35.2L57,56.5c4.5,0.9,9.9,2.2,12.9,2.8L39.7,35.2z"/>
	<polygon class="st21" points="17.2,65.3 39.7,35.2 32.6,59.3 	"/>
	<path class="st22" d="M39.7,35.2L20.1,46.6c-0.2,1.5-1.9,15-2.9,18.7L39.7,35.2"/>
	<polygon class="st23" points="0,35.2 39.7,35.2 20.1,46.6 	"/>
	<polygon class="st13" points="32.6,59.3 39.7,35.2 48.3,68.6 	"/>
	<polygon class="st24" points="57,56.5 39.7,35.2 48.3,68.6 	"/>
	<polygon class="st25" points="17.2,5.2 39.7,35.2 32.1,9.8 	"/>
	<path class="st26" d="M17.2,5.2c1.1,8.3,3.2,18.8,3.2,18.8l19.4,11.2L17.2,5.2z"/>
	<polygon class="st27" points="0,35.2 39.7,35.2 20.4,24 	"/>
	<polygon class="st28" points="32.1,9.8 39.7,35.2 49.3,2.3 	"/>
	<line class="st29" x1="49.3" y1="2.3" x2="39.7" y2="35.2"/>
	<polygon class="st6" points="69.9,11.1 57.1,13.8 39.7,35.2 	"/>
	<polygon class="st3" points="49.3,2.3 57.1,13.8 39.8,35.1 	"/>
	<polygon class="st30" points="69.9,11.1 39.7,35.2 68.6,20.7 	"/>
	<path class="st31" d="M81.4,35.2c1.5-1.8,8.8-9.3,10.4-11.4l-52,11.4L81.4,35.2z"/>
	<polygon class="st32" points="91.8,23.8 68.6,20.7 39.7,35.2 	"/>
	<path class="st33" d="M81.4,35.2c3.4,3.5,8.7,9.8,10.4,11.4l-52-11.4L81.4,35.2z"/>
	<polygon class="st34" points="91.8,46.6 68,49.4 39.7,35.2 	"/>
	<path class="st35" d="M13.9,51.2h-1.4v5.4c0,0.1-0.1,0.2-0.2,0.2h-0.8c-0.1,0-0.2-0.1-0.2-0.2v-5.4H9.9c-0.1,0-0.2-0.1-0.2-0.2
		v-0.7c0-0.1,0.1-0.2,0.2-0.2h4c0.1,0,0.2,0.1,0.2,0.2v0.7C14.1,51.2,14,51.2,13.9,51.2"/>
	<path class="st35" d="M18.2,56.9h-0.8c-0.1,0-0.2-0.1-0.2-0.2v-0.2c-0.4,0.3-0.8,0.4-1.3,0.4c-0.4,0-0.8-0.1-1-0.4
		c-0.3-0.3-0.4-0.9-0.4-1.6V52c0-0.1,0.1-0.2,0.2-0.2h0.8c0.1,0,0.2,0.1,0.2,0.2v2.9c0,0.4,0,0.7,0.2,0.9c0.1,0.1,0.3,0.2,0.5,0.2
		c0.3,0,0.7-0.2,0.9-0.4V52c0-0.1,0.1-0.2,0.2-0.2h0.8c0.1,0,0.2,0.1,0.2,0.2v4.7C18.4,56.8,18.3,56.9,18.2,56.9"/>
	<path class="st35" d="M22.9,56.9h-0.8c-0.1,0-0.2-0.1-0.2-0.2v-2.9c0-0.8-0.1-1-0.7-1c-0.3,0-0.6,0.1-0.9,0.3v3.6
		c0,0.1-0.1,0.2-0.2,0.2h-0.8c-0.1,0-0.2-0.1-0.2-0.2V52c0-0.1,0.1-0.2,0.2-0.2h0.7c0.1,0,0.2,0.1,0.2,0.2v0.2
		c0.5-0.3,0.8-0.4,1.3-0.4c1.2,0,1.4,0.9,1.4,2v2.9C23,56.8,22.9,56.9,22.9,56.9"/>
	<path class="st35" d="M24.8,51.1H24c-0.1,0-0.2-0.1-0.2-0.2v-0.8c0-0.1,0.1-0.2,0.2-0.2h0.8c0.1,0,0.2,0.1,0.2,0.2V51
		C25,51.1,24.9,51.1,24.8,51.1 M24.8,56.9h-0.8c-0.1,0-0.2-0.1-0.2-0.2V52c0-0.1,0.1-0.2,0.2-0.2h0.8c0.1,0,0.2,0.1,0.2,0.2v4.7
		C25,56.8,24.9,56.9,24.8,56.9"/>
	<path class="st35" d="M27.3,56.9c-0.3,0-1,0-1.5-0.2c-0.1,0-0.2-0.1-0.2-0.2V56c0-0.1,0.1-0.1,0.1-0.1h0c0.4,0.1,1.1,0.1,1.4,0.1
		c0.5,0,0.6-0.2,0.6-0.4c0-0.2-0.1-0.3-0.4-0.5l-1.1-0.8c-0.4-0.3-0.7-0.7-0.7-1.2c0-0.9,0.5-1.3,1.6-1.3c0.7,0,1,0.1,1.5,0.2
		c0.1,0,0.1,0.1,0.1,0.2v0.5c0,0.1-0.1,0.2-0.1,0.2h0c-0.2,0-0.9-0.1-1.4-0.1c-0.4,0-0.6,0.1-0.6,0.4c0,0.1,0.1,0.2,0.3,0.4l1.1,0.7
		c0.7,0.5,0.8,0.9,0.8,1.4C28.9,56.3,28.4,56.9,27.3,56.9"/>
	<path class="st35" d="M30.6,51.1h-0.8c-0.1,0-0.2-0.1-0.2-0.2v-0.8c0-0.1,0.1-0.2,0.2-0.2h0.8c0.1,0,0.2,0.1,0.2,0.2V51
		C30.8,51.1,30.7,51.1,30.6,51.1 M30.6,56.9h-0.8c-0.1,0-0.2-0.1-0.2-0.2V52c0-0.1,0.1-0.2,0.2-0.2h0.8c0.1,0,0.2,0.1,0.2,0.2v4.7
		C30.7,56.8,30.7,56.9,30.6,56.9"/>
	<path class="st35" d="M35.2,54.7h-2.7v0c0,0.5,0.2,1.1,1,1.1c0.6,0,1.2-0.1,1.5-0.1h0c0.1,0,0.1,0,0.1,0.1v0.6c0,0.1,0,0.2-0.2,0.2
		c-0.5,0.1-0.9,0.2-1.6,0.2c-0.8,0-2-0.5-2-2.3V54c0-1.4,0.7-2.3,2-2.3c1.3,0,1.9,0.9,1.9,2.3v0.5C35.4,54.7,35.3,54.7,35.2,54.7
		 M34.3,53.9c0-0.7-0.4-1.1-0.9-1.1c-0.5,0-0.9,0.4-0.9,1.1v0L34.3,53.9L34.3,53.9z"/>
	<path class="st35" d="M41.8,51.2h-1.4v5.4c0,0.1-0.1,0.2-0.2,0.2h-0.8c-0.1,0-0.2-0.1-0.2-0.2v-5.4h-1.4c-0.1,0-0.2-0.1-0.2-0.2
		v-0.7c0-0.1,0.1-0.2,0.2-0.2h4c0.1,0,0.2,0.1,0.2,0.2v0.7C41.9,51.2,41.9,51.2,41.8,51.2"/>
	<path class="st35" d="M46.1,54.7h-2.7v0c0,0.5,0.2,1.1,1,1.1c0.6,0,1.2-0.1,1.5-0.1h0c0.1,0,0.1,0,0.1,0.1v0.6c0,0.1,0,0.2-0.2,0.2
		c-0.5,0.1-0.9,0.2-1.6,0.2c-0.8,0-2-0.5-2-2.3V54c0-1.4,0.7-2.3,2-2.3c1.3,0,1.9,0.9,1.9,2.3v0.5C46.2,54.7,46.2,54.7,46.1,54.7
		 M45.2,53.9c0-0.7-0.4-1.1-0.9-1.1c-0.5,0-0.9,0.4-0.9,1.1v0L45.2,53.9L45.2,53.9z"/>
	<path class="st35" d="M47.9,56.9h-0.8c-0.1,0-0.2-0.1-0.2-0.2v-6.5c0-0.1,0.1-0.2,0.2-0.2h0.8c0.1,0,0.2,0.1,0.2,0.2v6.5
		C48.1,56.8,48,56.9,47.9,56.9"/>
	<path class="st35" d="M52.6,54.7h-2.7v0c0,0.5,0.2,1.1,1,1.1c0.6,0,1.2-0.1,1.5-0.1h0c0.1,0,0.2,0,0.2,0.1v0.6c0,0.1,0,0.2-0.2,0.2
		c-0.5,0.1-0.8,0.2-1.6,0.2c-0.8,0-2-0.5-2-2.3V54c0-1.4,0.7-2.3,2-2.3c1.3,0,1.9,0.9,1.9,2.3v0.5C52.7,54.7,52.7,54.7,52.6,54.7
		 M51.7,53.9c0-0.7-0.4-1.1-0.9-1.1c-0.5,0-0.9,0.4-0.9,1.1v0L51.7,53.9L51.7,53.9z"/>
	<path class="st35" d="M56.2,56.8c-0.2,0.1-0.6,0.1-1.1,0.1c-1.1,0-1.9-0.7-1.9-2.2v-0.8c0-1.5,0.8-2.2,1.9-2.2
		c0.5,0,0.9,0.1,1.1,0.1c0.1,0,0.2,0.1,0.2,0.2v0.6c0,0.1-0.1,0.1-0.1,0.1h0c-0.3,0-0.5-0.1-1.1-0.1c-0.4,0-0.8,0.2-0.8,1.2v0.8
		c0,0.9,0.4,1.2,0.8,1.2c0.5,0,0.7,0,1.1-0.1h0c0.1,0,0.1,0,0.1,0.1v0.6C56.4,56.7,56.3,56.8,56.2,56.8"/>
	<path class="st35" d="M58.9,56.9c-1.3,0-2-0.9-2-2.2V54c0-1.3,0.7-2.2,2-2.2c1.3,0,1.9,1,1.9,2.2v0.7C60.8,56,60.2,56.9,58.9,56.9
		 M59.8,54c0-0.7-0.3-1.2-0.9-1.2c-0.6,0-0.9,0.5-0.9,1.2v0.7c0,0.7,0.3,1.2,0.9,1.2c0.6,0,0.9-0.5,0.9-1.2V54z"/>
	<path class="st35" d="M67.3,56.9h-0.8c-0.1,0-0.2-0.1-0.2-0.2v-3.1c0-0.7-0.1-0.9-0.6-0.9c-0.2,0-0.5,0.1-0.8,0.2
		c0,0.2,0,0.4,0,0.6v3.1c0,0.1-0.1,0.2-0.2,0.2h-0.8c-0.1,0-0.2-0.1-0.2-0.2v-3.1c0-0.7-0.1-0.9-0.6-0.9c-0.2,0-0.4,0.1-0.8,0.3v3.6
		c0,0.1-0.1,0.2-0.2,0.2h-0.8c-0.1,0-0.2-0.1-0.2-0.2V52c0-0.1,0.1-0.2,0.2-0.2h0.7c0.1,0,0.2,0.1,0.2,0.2v0.2
		c0.3-0.2,0.7-0.4,1.2-0.4c0.5,0,0.8,0.2,1,0.4c0.4-0.3,0.8-0.4,1.3-0.4c1.1,0,1.4,0.8,1.4,1.9v3.1C67.4,56.8,67.3,56.9,67.3,56.9"
		/>
	<path class="st35" d="M9.9,20.4v3.4H19v19.1c0,3.7,2.3,5,5,5h3.8V23.8h4.5c2.7,0,4.9-2.5,4.9-4.7v-3.4H14.8
		C11.6,15.7,9.9,18.3,9.9,20.4"/>
	<path class="st35" d="M45,15.8c-3.2,0-5,2.5-5,4.7v3.4h9.1v19.1c0,3.7,2.3,5,5,5H58V23.8h4.5c2.7,0,4.9-2.5,4.9-4.7v-3.4H45z"/>
</g>
</svg>
